<?xml version="1.0" encoding="UTF-8" standalone="no"?>
<svg
   xmlns:dc="http://purl.org/dc/elements/1.1/"
   xmlns:cc="http://creativecommons.org/ns#"
   xmlns:rdf="http://www.w3.org/1999/02/22-rdf-syntax-ns#"
   xmlns:svg="http://www.w3.org/2000/svg"
   xmlns="http://www.w3.org/2000/svg"
   viewBox="0 0 113.33333 46.666668"
   height="46.666668"
   width="113.33333"
   xml:space="preserve"
   id="svg2"
   version="1.1"><metadata
     id="metadata8"><rdf:RDF><cc:Work
         rdf:about=""><dc:format>image/svg+xml</dc:format><dc:type
           rdf:resource="http://purl.org/dc/dcmitype/StillImage" /></cc:Work></rdf:RDF></metadata><defs
     id="defs6" /><g
     transform="matrix(1.3333333,0,0,-1.3333333,0,46.666667)"
     id="g10"><g
       transform="translate(67.613831,14.448059)"
       id="g12"><path
         id="path14"
         style="fill:#ffffff;fill-opacity:1;fill-rule:nonzero;stroke:none"
         d="m 13.072195,16.903137 h 2.011108 V 7.429466 h -2.011108 v 4.549999 H 9.988497 v 1.802416 h 3.083698 z M 5.407643,11.210142 C 4.826657,10.2723 4.074354,9.51763 3.150734,8.946133 2.227115,8.374635 1.17687,8.022944 0,7.89106 v 1.868358 c 1.296047,0.175845 2.338843,0.703381 3.128389,1.582608 0.804443,0.893881 1.266252,2.022222 1.385429,3.385024 H 0.201112 v 1.780436 H 10.614177 V 14.72705 H 6.547272 C 6.502581,14.009014 6.383403,13.378902 6.189741,12.836712 L 11.172817,9.605553 10.167264,8.044926 Z M 8.111465,6.901929 c 2.145179,0 3.865793,-0.278422 5.161839,-0.835266 1.296047,-0.556844 1.944073,-1.428744 1.944073,-2.6157 0,-1.186956 -0.648026,-2.058857 -1.944073,-2.615701 C 11.977258,0.278418 10.256644,-2e-6 8.111465,-2e-6 5.981181,-2e-6 4.268017,0.278418 2.97197,0.835262 1.690821,1.392106 1.050247,2.264007 1.050247,3.450963 c 0,1.186956 0.640574,2.058856 1.921723,2.6157 1.296047,0.556844 3.009211,0.835266 5.139495,0.835266 z m 0,-5.20942 c 1.459914,0 2.651681,0.146537 3.575301,0.439613 0.92362,0.30773 1.385429,0.747343 1.385429,1.318841 0,0.571498 -0.461809,1.003784 -1.385429,1.296861 C 10.763146,5.055552 9.571379,5.209417 8.111465,5.209417 6.65155,5.209417 5.467231,5.055552 4.558509,4.747824 3.649786,4.454747 3.195425,4.022461 3.195425,3.450963 3.195425,2.879465 3.649786,2.439852 4.558509,2.132122 5.467231,1.839046 6.65155,1.692509 8.111465,1.692509 Z" /></g><g
       transform="translate(50.879272,14.470032)"
       id="g16"><path
         id="path18"
         style="fill:#ffffff;fill-opacity:1;fill-rule:nonzero;stroke:none"
         d="m 12.580584,6e-6 v 16.881159 h 2.033453 V 6e-6 Z M 4.960728,16.507492 c 1.519502,0 2.718716,-0.659419 3.597644,-1.97826 0.893825,-1.31884 1.340737,-3.282448 1.340737,-5.890821 0,-2.608374 -0.446912,-4.571981 -1.340737,-5.890822 -0.878928,-1.31884 -2.078142,-1.97826 -3.597644,-1.97826 -1.519502,0 -2.726166,0.65942 -3.619991,1.97826 C 0.446912,4.06643 0,6.030037 0,8.638411 c 0,2.608373 0.446912,4.571981 1.340737,5.890821 0.893825,1.318841 2.100489,1.97826 3.619991,1.97826 z m 0,-1.912318 c -0.908722,0 -1.631231,-0.490901 -2.167526,-1.472705 -0.536295,-0.96715 -0.804441,-2.461836 -0.804441,-4.484058 0,-2.022223 0.268146,-3.524235 0.804441,-4.506039 0.536295,-0.96715 1.258804,-1.450724 2.167526,-1.450724 0.878927,0 1.586539,0.490901 2.122833,1.472704 0.536296,0.981804 0.804444,2.47649 0.804444,4.484059 0,2.007568 -0.268148,3.502254 -0.804444,4.484058 -0.536294,0.981804 -1.243906,1.472705 -2.122833,1.472705 z" /></g><g
       transform="translate(33.295654,14.470032)"
       id="g20"><path
         id="path22"
         style="fill:#ffffff;fill-opacity:1;fill-rule:nonzero;stroke:none"
         d="m 15.552555,6e-6 h -1.921723 v 16.881159 h 1.921723 z M 11.575034,16.793242 V 0.285753 H 9.675655 V 7.913049 H 7.619858 C 7.56027,5.465867 7.210189,3.663451 6.569614,2.505802 5.929039,1.348153 5.00542,0.769329 3.798756,0.769329 c -1.251355,0 -2.19732,0.63744 -2.837894,1.912319 C 0.320287,3.956527 0,5.942114 0,8.638411 c 0,2.696296 0.320287,4.681884 0.960862,5.956763 0.640574,1.274879 1.586539,1.912318 2.837894,1.912318 1.161973,0 2.055798,-0.534862 2.681475,-1.604588 0.640575,-1.069726 1.013002,-2.732931 1.117281,-4.989614 h 2.078143 v 6.879952 z M 3.798756,2.659667 c 0.655472,0 1.139627,0.483575 1.452466,1.450725 0.312838,0.981803 0.469258,2.491143 0.469258,4.528019 0,2.036876 -0.15642,3.538888 -0.469258,4.506038 -0.312839,0.981804 -0.796994,1.472706 -1.452466,1.472706 -0.640574,0 -1.117281,-0.490902 -1.43012,-1.472706 -0.312839,-0.96715 -0.469258,-2.469162 -0.469258,-4.506038 0,-2.036876 0.156419,-3.546216 0.469258,-4.528019 0.312839,-0.96715 0.789546,-1.450725 1.43012,-1.450725 z" /></g><g
       transform="translate(77.755005,1.454102)"
       id="g24"><path
         id="path26"
         style="fill:#ffffff;fill-opacity:1;fill-rule:nonzero;stroke:none"
         d="M 5.19965,3.051955 V 0.760892 C 4.918897,0.512905 4.589442,0.324097 4.211286,0.194468 3.838859,0.064838 3.449245,2.3e-5 3.042441,2.3e-5 2.463747,2.3e-5 1.942348,0.129653 1.478247,0.388912 1.019876,0.653807 0.65891,1.014515 0.395346,1.471037 0.131783,1.933195 0,2.451713 0,3.026592 0,3.601471 0.131783,4.119989 0.395346,4.582148 0.65891,5.044305 1.022741,5.405014 1.486842,5.664273 c 0.464101,0.259259 0.988363,0.388889 1.572787,0.388889 0.452641,0 0.86804,-0.076087 1.246197,-0.228261 C 4.683982,5.672727 5.001977,5.450102 5.259811,5.157027 L 4.752738,4.64978 C 4.317285,5.111938 3.764375,5.343017 3.094007,5.343017 2.658554,5.343017 2.266075,5.241568 1.916567,5.03867 1.567058,4.841407 1.294899,4.565239 1.100091,4.210167 0.905283,3.860731 0.80788,3.466206 0.80788,3.026592 0.80788,2.586979 0.905283,2.192454 1.100091,1.843018 1.294899,1.493581 1.564193,1.217414 1.907971,1.014516 2.25748,0.817253 2.649959,0.718622 3.085412,0.718622 c 0.544316,0 1.002688,0.143719 1.375114,0.431159 v 1.902174 z" /></g><g
       transform="translate(68.765869,1.52179)"
       id="g28"><path
         id="path30"
         style="fill:#ffffff;fill-opacity:1;fill-rule:nonzero;stroke:none"
         d="M 4.898849,-2.7e-5 H 4.237074 L 0.790693,4.497557 V -2.7e-5 H 0 v 5.917874 h 0.65318 l 3.454977,-4.48913 v 4.48913 h 0.790692 z" /></g><g
       transform="translate(58.589661,1.454102)"
       id="g32"><path
         id="path34"
         style="fill:#ffffff;fill-opacity:1;fill-rule:nonzero;stroke:none"
         d="m 3.033847,2.3e-5 c -0.572964,0 -1.091498,0.12963 -1.555599,0.388889 C 1.019876,0.653807 0.65891,1.017334 0.395346,1.479491 0.131783,1.941649 0,2.457349 0,3.026592 c 0,0.574879 0.131783,1.09058 0.395346,1.547101 0.263564,0.462158 0.62453,0.822866 1.082902,1.082125 0.464101,0.264896 0.982635,0.397344 1.555599,0.397344 0.572965,0 1.091499,-0.132448 1.5556,-0.397344 C 5.053548,5.396559 5.41738,5.035851 5.680943,4.573693 5.944507,4.117172 6.07629,3.601471 6.07629,3.026592 6.07629,2.451713 5.944507,1.933195 5.680943,1.471037 5.41738,1.014515 5.053548,0.653807 4.589447,0.388912 4.125346,0.129653 3.606812,2.3e-5 3.033847,2.3e-5 Z m 0,0.718599 c 0.423994,0 0.805017,0.098631 1.143066,0.295894 0.338049,0.197262 0.604477,0.470611 0.799285,0.820048 0.194808,0.355072 0.292212,0.752415 0.292212,1.192028 0,0.439614 -0.097404,0.834139 -0.292212,1.183575 C 4.78139,4.565239 4.514962,4.841407 4.176913,5.03867 3.838864,5.241568 3.457841,5.343017 3.033847,5.343017 2.615583,5.343017 2.237426,5.241568 1.899377,5.03867 1.561328,4.841407 1.2949,4.565239 1.100092,4.210167 0.905284,3.860731 0.807881,3.466206 0.807881,3.026592 0.807881,2.586979 0.905284,2.189636 1.100092,1.834564 1.2949,1.485127 1.561328,1.211778 1.899377,1.014516 2.237426,0.817253 2.615583,0.718622 3.033847,0.718622 Z" /></g><g
       transform="translate(50.749268,1.52179)"
       id="g36"><path
         id="path38"
         style="fill:#ffffff;fill-opacity:1;fill-rule:nonzero;stroke:none"
         d="M 4.142532,-2.7e-5 H 0 V 5.917847 H 4.030804 V 5.241518 H 0.799286 V 3.339345 H 3.678431 V 2.671471 H 0.799286 V 0.684755 h 3.343246 z" /></g><g
       transform="translate(42.92804,1.454102)"
       id="g40"><path
         id="path42"
         style="fill:#ffffff;fill-opacity:1;fill-rule:nonzero;stroke:none"
         d="M 1.658732,2.7e-5 C 1.320683,2.7e-5 1.002688,0.073296 0.704747,0.219834 0.412535,0.372008 0.177619,0.583361 0,0.853892 L 0.446912,1.403409 C 0.762043,0.929978 1.157388,0.693264 1.632949,0.693264 c 0.664638,0 0.996958,0.408615 0.996958,1.225845 V 5.309206 H 0.55864 V 5.985535 H 3.420597 V 1.952926 c 0,-0.648149 -0.14897,-1.135669 -0.446911,-1.462561 C 2.681474,0.163473 2.243155,2.7e-5 1.658732,2.7e-5 Z" /></g><g
       transform="translate(33.81134,1.52179)"
       id="g44"><path
         id="path46"
         style="fill:#ffffff;fill-opacity:1;fill-rule:nonzero;stroke:none"
         d="M 1.469654,1.504804 0.833664,-2.7e-5 H 0 L 2.59553,5.917847 H 3.386221 L 5.990345,-2.7e-5 H 5.139493 L 4.503502,1.504804 Z M 2.990875,5.08089 1.727488,2.147316 h 2.51818 z" /></g><g
       transform="translate(0,9.306213)"
       id="g48"><path
         id="path50"
         style="fill:#ff6b32;fill-opacity:1;fill-rule:evenodd;stroke:none"
         d="m 10.119721,22.649887 c 0.52787,0.01331 1.015914,-0.274963 1.252062,-0.739546 L 21.421341,2.139482 C 21.757462,1.47822 21.484982,0.674131 20.81274,0.3435 20.140497,0.012867 19.323057,0.280899 18.986937,0.942162 L 10.236767,18.156683 2.607992,1.004269 C 2.306741,0.326939 1.504328,0.01808 0.815754,0.314411 0.127179,0.610743 -0.186808,1.400047 0.114443,2.077377 l 8.793363,19.770857 c 0.21165,0.47587 0.684045,0.788349 1.211915,0.801653 z" /></g><g
       transform="translate(8.793701,1.476135)"
       id="g52"><path
         id="path54"
         style="fill:#ffffff;fill-opacity:1;fill-rule:evenodd;stroke:none"
         d="m 2.721748,9.370544 c 0,-3.696586 3.04643,-6.693261 6.804392,-6.693261 3.757962,0 6.804392,2.996675 6.804392,6.693261 H 19.05228 C 19.05228,4.195328 14.787282,-1.3e-5 9.52614,-1.3e-5 4.264998,-1.3e-5 0,4.195328 0,9.370544 Z" /></g><g
       transform="translate(25.124268,10.847534)"
       id="g56"><path
         id="path58"
         style="fill:#ffffff;fill-opacity:1;fill-rule:evenodd;stroke:none"
         d="M 2.721748,14.730408 V -2.8e-5 H 0 v 14.730436 z" /></g></g></svg>