<?xml version="1.0" encoding="UTF-8" standalone="no"?>
<svg
   xmlns:dc="http://purl.org/dc/elements/1.1/"
   xmlns:cc="http://creativecommons.org/ns#"
   xmlns:rdf="http://www.w3.org/1999/02/22-rdf-syntax-ns#"
   xmlns:svg="http://www.w3.org/2000/svg"
   xmlns="http://www.w3.org/2000/svg"
   viewBox="0 0 86.666664 36"
   height="36"
   width="86.666664"
   xml:space="preserve"
   id="svg2"
   version="1.1"><metadata
     id="metadata8"><rdf:RDF><cc:Work
         rdf:about=""><dc:format>image/svg+xml</dc:format><dc:type
           rdf:resource="http://purl.org/dc/dcmitype/StillImage" /></cc:Work></rdf:RDF></metadata><defs
     id="defs6" /><g
     transform="matrix(1.3333333,0,0,-1.3333333,0,36)"
     id="g10"><g
       transform="translate(51.704651,11.14566)"
       id="g12"><path
         id="path14"
         style="fill:#000000;fill-opacity:1;fill-rule:nonzero;stroke:none"
         d="m 9.996382,13.039551 h 1.537906 V 5.73129 H 9.996382 v 3.51 H 7.638261 v 1.390434 H 9.996382 Z M 4.135255,8.647812 C 3.690972,7.924334 3.115681,7.342159 2.409384,6.90129 1.703087,6.46042 0.899959,6.189116 0,6.087377 v 1.441305 c 0.991094,0.135652 1.788527,0.542608 2.392297,1.220869 0.615162,0.689565 0.96831,1.56 1.059445,2.611304 h -3.29795 v 1.373479 H 8.116721 V 11.360855 H 5.006736 C 4.97256,10.806942 4.881424,10.320855 4.73333,9.902595 L 8.543917,7.409986 7.774965,6.206073 Z M 6.202883,5.324333 c 1.640432,0 2.956194,-0.214783 3.947288,-0.644348 0.991095,-0.429565 1.486643,-1.102174 1.486643,-2.017825 0,-0.915652 -0.495548,-1.588262 -1.486643,-2.017827 C 9.159077,0.214768 7.843315,-1.3e-5 6.202883,-1.3e-5 c -1.62904,0 -2.939106,0.214781 -3.9302,0.644346 C 1.29298,1.073898 0.80313,1.746508 0.80313,2.66216 c 0,0.915651 0.48985,1.58826 1.469553,2.017825 0.991094,0.429565 2.30116,0.644348 3.9302,0.644348 z m 0,-4.018696 c 1.116405,0 2.027756,0.113044 2.734053,0.339132 0.706297,0.23739 1.059446,0.576521 1.059446,1.017391 0,0.440869 -0.353149,0.774347 -1.059446,1.000435 C 8.230639,3.899986 7.319288,4.018682 6.202883,4.018682 5.086478,4.018682 4.180823,3.899986 3.485918,3.662595 2.791012,3.436507 2.44356,3.103029 2.44356,2.66216 2.44356,2.22129 2.791012,1.882159 3.485918,1.644769 4.180823,1.418681 5.086478,1.305637 6.202883,1.305637 Z" /></g><g
       transform="translate(38.907654,11.162598)"
       id="g16"><path
         id="path18"
         style="fill:#000000;fill-opacity:1;fill-rule:nonzero;stroke:none"
         d="m 9.620449,6e-6 v 13.022608 h 1.554994 V 6e-6 Z m -5.82695,12.734346 c 1.161972,0 2.079018,-0.508695 2.75114,-1.526087 0.683513,-1.017391 1.02527,-2.532173 1.02527,-4.544347 0,-2.012174 -0.341757,-3.526956 -1.02527,-4.544347 C 5.872517,1.102179 4.955471,0.593483 3.793499,0.593483 2.631526,0.593483 1.708783,1.102179 1.02527,2.119571 0.341757,3.136962 0,4.651744 0,6.663918 c 0,2.012174 0.341757,3.526956 1.02527,4.544347 0.683513,1.017392 1.606256,1.526087 2.768229,1.526087 z m 0,-1.475217 c -0.694906,0 -1.247412,-0.378695 -1.65752,-1.136086 C 1.725871,9.376962 1.520817,8.223918 1.520817,6.663918 c 0,-1.56 0.205054,-2.718696 0.615162,-3.476087 0.410108,-0.746087 0.962614,-1.11913 1.65752,-1.11913 0.672121,0 1.213235,0.378695 1.623343,1.136086 0.410109,0.757391 0.615163,1.910435 0.615163,3.459131 0,1.548695 -0.205054,2.701739 -0.615163,3.459131 -0.410108,0.757391 -0.951222,1.136086 -1.623343,1.136086 z" /></g><g
       transform="translate(25.461365,11.162598)"
       id="g20"><path
         id="path22"
         style="fill:#000000;fill-opacity:1;fill-rule:nonzero;stroke:none"
         d="M 11.89313,6e-6 H 10.423577 V 13.022614 H 11.89313 Z M 8.851497,12.954788 V 0.22044 H 7.39903 V 6.104353 H 5.826951 C 5.781383,4.216527 5.513674,2.826092 5.023822,1.933048 4.533971,1.040005 3.827674,0.593483 2.904931,0.593483 c -0.956918,0 -1.680303,0.49174 -2.170154,1.475218 C 0.244926,3.052179 0,4.583918 0,6.663918 c 0,2.079999 0.244926,3.61174 0.734777,4.595217 0.489851,0.983479 1.213236,1.475217 2.170154,1.475217 0.888567,0 1.572081,-0.412608 2.05054,-1.237825 C 5.445322,10.671309 5.730119,9.388266 5.809862,7.647396 H 7.39903 v 5.307392 z M 2.904931,2.051744 c 0.501243,0 0.87148,0.373044 1.110709,1.119131 0.239229,0.757391 0.358845,1.921738 0.358845,3.493043 0,1.571304 -0.119616,2.73 -0.358845,3.476086 -0.239229,0.757392 -0.609466,1.136088 -1.110709,1.136088 -0.489851,0 -0.854391,-0.378696 -1.093621,-1.136088 C 1.57208,9.393918 1.452466,8.235222 1.452466,6.663918 1.452466,5.092613 1.57208,3.928266 1.81131,3.170875 2.05054,2.424788 2.41508,2.051744 2.904931,2.051744 Z" /></g><g
       transform="translate(59.459717,1.121765)"
       id="g24"><path
         id="path26"
         style="fill:#000000;fill-opacity:1;fill-rule:nonzero;stroke:none"
         d="M 3.976206,2.354338 V 0.586947 C 3.761513,0.395643 3.509577,0.249991 3.220398,0.149991 2.935601,0.049991 2.637661,-1e-5 2.326575,-1e-5 c -0.442532,0 -0.841249,0.1 -1.19615,0.300001 C 0.779905,0.504338 0.503873,0.782599 0.302324,1.134773 0.100775,1.491295 0,1.891295 0,2.334773 c 0,0.443478 0.100775,0.843478 0.302324,1.2 0.201549,0.356522 0.479773,0.634783 0.834674,0.834783 0.354901,0.2 0.755807,0.3 1.20272,0.3 0.346138,0 0.663796,-0.058696 0.952975,-0.176087 C 3.581872,4.376078 3.825045,4.204339 4.022212,3.978251 L 3.634449,3.586947 C 3.301456,3.943469 2.878642,4.121729 2.366007,4.121729 2.033014,4.121729 1.732882,4.043469 1.465611,3.886947 1.19834,3.734773 0.990218,3.521729 0.841247,3.247817 0.692276,2.978251 0.617791,2.673903 0.617791,2.334773 0.617791,1.995643 0.692276,1.691295 0.841247,1.42173 0.990218,1.152164 1.196148,0.939121 1.459038,0.782599 1.726309,0.630425 2.026441,0.554338 2.359434,0.554338 c 0.416242,0 0.766763,0.11087 1.05156,0.332609 v 1.467391 z" /></g><g
       transform="translate(52.585693,1.17392)"
       id="g28"><path
         id="path30"
         style="fill:#000000;fill-opacity:1;fill-rule:nonzero;stroke:none"
         d="M 3.74618,-1e-6 H 3.240117 L 0.604648,3.469564 V -1e-6 H 0 V 4.565216 H 0.49949 L 3.141532,1.102173 V 4.565216 H 3.74618 Z" /></g><g
       transform="translate(44.803833,1.121765)"
       id="g32"><path
         id="path34"
         style="fill:#000000;fill-opacity:1;fill-rule:nonzero;stroke:none"
         d="m 2.320002,-1e-5 c -0.43815,0 -0.834676,0.1 -1.189577,0.300001 C 0.779906,0.504338 0.503873,0.784773 0.302324,1.141295 0.100775,1.497817 0,1.895643 0,2.334773 c 0,0.443478 0.100775,0.841304 0.302324,1.193478 0.201549,0.356522 0.477582,0.634783 0.828101,0.834783 0.354901,0.204348 0.751427,0.306522 1.189577,0.306522 0.438149,0 0.834675,-0.102174 1.189576,-0.306522 0.354902,-0.2 0.633126,-0.478261 0.834675,-0.834783 0.201549,-0.352174 0.302323,-0.75 0.302323,-1.193478 0,-0.443478 -0.100774,-0.843478 -0.302323,-1.2 C 4.142704,0.782599 3.86448,0.504338 3.509578,0.299991 3.154677,0.09999 2.758151,-1e-5 2.320002,-1e-5 Z m 0,0.554348 c 0.324231,0 0.615601,0.076087 0.874109,0.228261 0.258508,0.152174 0.462247,0.363044 0.611218,0.632609 0.148971,0.273913 0.223456,0.580435 0.223456,0.919565 0,0.33913 -0.074485,0.643478 -0.223456,0.913044 C 3.656358,3.521729 3.452619,3.734773 3.194111,3.886947 2.935603,4.043469 2.644233,4.121729 2.320002,4.121729 2.000153,4.121729 1.710974,4.043469 1.452465,3.886947 1.193957,3.734773 0.990218,3.521729 0.841247,3.247817 0.692276,2.978251 0.617791,2.673903 0.617791,2.334773 c 0,-0.33913 0.074485,-0.645652 0.223456,-0.919565 C 0.990218,1.145643 1.193957,0.934773 1.452465,0.782599 1.710974,0.630425 2.000153,0.554338 2.320002,0.554338 Z" /></g><g
       transform="translate(38.808228,1.17392)"
       id="g36"><path
         id="path38"
         style="fill:#000000;fill-opacity:1;fill-rule:nonzero;stroke:none"
         d="M 3.167821,-1e-6 H 0 V 4.565216 H 3.082382 V 4.043477 H 0.611219 V 2.576086 H 2.81292 V 2.060868 H 0.611219 V 0.528259 h 2.556602 z" /></g><g
       transform="translate(32.827271,1.121735)"
       id="g40"><path
         id="path42"
         style="fill:#000000;fill-opacity:1;fill-rule:nonzero;stroke:none"
         d="M 1.268443,1e-5 C 1.009935,1e-5 0.766762,0.056532 0.538924,0.169575 0.315468,0.286966 0.135826,0.45001 0,0.658706 L 0.341757,1.082618 C 0.582739,0.717401 0.885062,0.534792 1.248726,0.534792 c 0.508254,0 0.76238,0.315218 0.76238,0.945653 v 2.615217 h -1.58391 v 0.521739 h 2.188556 v -3.11087 c 0,-0.5 -0.113918,-0.876086 -0.341756,-1.12826 C 2.05054,0.126097 1.715355,1e-5 1.268443,1e-5 Z" /></g><g
       transform="translate(25.855713,1.17392)"
       id="g44"><path
         id="path46"
         style="fill:#000000;fill-opacity:1;fill-rule:nonzero;stroke:none"
         d="M 1.123854,1.160868 0.637508,-1e-6 H 0 L 1.984817,4.565216 H 2.589464 L 4.580853,-1e-6 H 3.930201 L 3.443855,1.160868 Z M 2.28714,3.919564 1.321021,1.65652 h 1.925667 z" /></g><g
       transform="translate(0,7.179047)"
       id="g48"><path
         id="path50"
         style="fill:#ff6b32;fill-opacity:1;fill-rule:evenodd;stroke:none"
         d="m 7.73861,17.472773 c 0.403665,0.01027 0.776876,-0.212115 0.95746,-0.570507 L 16.381025,1.65046 c 0.257035,-0.510117 0.04867,-1.130414 -0.4654,-1.385472 -0.514069,-0.25506 -1.13917,-0.048292 -1.396203,0.461824 L 7.828116,14.006586 1.994347,0.774723 C 1.763978,0.252213 1.150369,0.013948 0.623812,0.242548 0.097255,0.471146 -0.142853,1.080038 0.087515,1.60255 l 6.724337,15.251805 c 0.161849,0.3671 0.523093,0.608154 0.926758,0.618418 z" /></g><g
       transform="translate(6.724548,1.138672)"
       id="g52"><path
         id="path54"
         style="fill:#0b2077;fill-opacity:1;fill-rule:evenodd;stroke:none"
         d="m 2.081336,7.228729 c 0,-2.851652 2.329623,-5.163373 5.203359,-5.163373 2.873736,0 5.203357,2.311721 5.203357,5.163373 h 2.081337 C 14.569389,3.23642 11.30792,1.3e-5 7.284695,1.3e-5 3.261469,1.3e-5 0,3.23642 0,7.228729 Z" /></g><g
       transform="translate(19.212708,8.368073)"
       id="g56"><path
         id="path58"
         style="fill:#0b2077;fill-opacity:1;fill-rule:evenodd;stroke:none"
         d="M 2.081336,11.363464 V -1.4e-5 H 0 v 11.363478 z" /></g></g></svg>